
<svg width="512" height="512" viewBox="0 0 512 512" fill="none" xmlns="http://www.w3.org/2000/svg">
  <circle cx="256" cy="256" r="256" fill="#EEF2FF"/>
  <circle cx="256" cy="256" r="200" fill="#E8E8FC"/>
  <circle cx="256" cy="256" r="180" fill="#DFE5FB"/>
  <path d="M323.392 147.509C307.118 126.274 282.95 113.891 256 113.891C229.05 113.891 204.882 126.274 188.608 147.509C178.471 160.056 172.396 175.417 171.111 191.552C169.826 207.687 173.383 223.822 181.405 238.043C184.667 244.045 188.846 249.486 193.765 254.123C215.616 273.797 227.893 302.356 227.893 332.341V349.84C227.893 359.282 235.739 367.128 245.181 367.128H266.819C276.261 367.128 284.107 359.282 284.107 349.84V332.341C284.107 302.356 296.384 273.797 318.235 254.123C323.154 249.486 327.333 244.045 330.595 238.043C338.617 223.822 342.174 207.687 340.889 191.552C339.604 175.417 333.529 160.056 323.392 147.509Z" fill="#8B5CF6"/>
  <path d="M354.219 350.123C339.904 348.381 325.572 355.181 319.557 368.604L294.203 423.659C292.351 427.919 294.003 432.909 298.155 434.968L322.203 447.339C326.355 449.397 331.43 447.929 333.569 443.979L364.387 391.579C371.557 379.237 368.11 363.352 356.661 354.973C355.893 354.387 355.082 353.844 354.219 350.123Z" fill="#10B981" />
  <path d="M157.781 350.123C172.096 348.381 186.428 355.181 192.443 368.604L217.797 423.659C219.649 427.919 217.997 432.909 213.845 434.968L189.797 447.339C185.645 449.397 180.57 447.929 178.431 443.979L147.613 391.579C140.443 379.237 143.89 363.352 155.339 354.973C156.107 354.387 156.918 353.844 157.781 350.123Z" fill="#F97316" />
</svg>
